<svg width="513" height="509" viewBox="0 0 513 509" fill="none" xmlns="http://www.w3.org/2000/svg">
<path d="M277.341 24C277.461 24.1389 277.631 24.2471 277.701 24.4169C277.917 24.9423 280.13 39.0837 280.42 40.7462L290.634 99.0942L316.201 244.985L324.041 289.718C325.405 297.5 327.376 305.566 327.904 313.43L348.213 254.363C375.321 252.617 402.505 251.44 429.635 250.017L454.003 248.723C459.21 248.461 464.7 247.887 469.884 248.466C473.704 248.894 477.216 250.68 480.109 253.173C484.745 257.171 487.216 262.092 487.629 268.203C487.999 273.684 486.218 279.39 482.539 283.503C479.8 286.566 475.858 288.911 471.865 289.88C464.614 291.639 452.968 291.319 445.225 291.774L379.043 295.333C378.394 298.113 377.264 300.912 376.336 303.622L371.016 319.069L354.551 367.02L328.488 442.947C323.89 456.333 319.667 470.032 314.519 483.212C313.541 475.54 311.997 467.889 310.662 460.271L303.919 421.779L280.535 288.19L265.432 202.172L232.763 304.995L221.721 339.765C219.785 345.859 217.443 352.057 215.997 358.279C214.269 354.465 212.133 350.793 210.178 347.089L200.321 328.306L171.71 273.735C166.56 263.905 161.169 254.141 156.309 244.172C148.567 245.305 140.552 245.677 132.753 246.377L87.2619 250.453L58.9141 253.017C53.9496 253.464 48.6256 254.364 43.6685 254.137C39.7129 253.955 36.4212 252.739 33.1699 250.475C32.5825 250.066 32.017 249.629 31.4733 249.164C30.9297 248.699 30.4107 248.207 29.9162 247.69C29.4218 247.173 28.9545 246.632 28.5143 246.068C28.0741 245.504 27.6632 244.919 27.2816 244.313C26.9 243.708 26.5496 243.085 26.2304 242.445C25.9111 241.805 25.6247 241.15 25.3712 240.482C25.1176 239.812 24.8981 239.132 24.7126 238.441C24.5272 237.75 24.3767 237.051 24.2613 236.345C23.3146 230.568 24.9924 224.729 28.4497 220.065C31.2302 216.314 34.8566 213.995 39.3448 212.769C44.5223 211.355 50.1877 211.173 55.5197 210.703L75.8691 208.844L143.785 202.519C156.039 201.388 168.588 200.737 180.752 198.947C182.639 203.23 185.114 207.415 187.287 211.571C193.595 223.633 200.417 235.628 206.197 247.944L254.338 96.2231L268.935 50.1609C271.692 41.4491 274.251 32.5975 277.341 24Z" fill="white"/>
</svg>
