<svg width="1820" height="546" viewBox="0 0 1820 546" fill="none" xmlns="http://www.w3.org/2000/svg">
<path d="M337.735 43.4736C337.855 43.6126 338.025 43.7207 338.095 43.8906C338.311 44.4159 340.524 58.5573 340.814 60.2199L351.028 118.568L376.595 264.459L384.435 309.192C385.799 316.973 387.77 325.04 388.298 332.903L408.607 273.836C435.715 272.09 462.899 270.914 490.029 269.491L514.397 268.197C519.604 267.935 525.094 267.361 530.278 267.94C534.098 268.368 537.61 270.154 540.503 272.646C545.139 276.645 547.61 281.565 548.023 287.677C548.393 293.157 546.612 298.863 542.933 302.977C540.194 306.04 536.252 308.385 532.259 309.353C525.008 311.113 513.362 310.793 505.619 311.248L439.437 314.807C438.788 317.587 437.658 320.386 436.73 323.095L431.41 338.543L414.945 386.494L388.882 462.42C384.284 475.807 380.061 489.506 374.913 502.686C373.935 495.014 372.391 487.363 371.056 479.744L364.313 441.252L340.929 307.663L325.826 221.646L293.157 324.468L282.115 359.239C280.179 365.333 277.837 371.531 276.391 377.753C274.663 373.939 272.527 370.266 270.572 366.563L260.715 347.779L232.104 293.208C226.954 283.379 221.563 273.615 216.703 263.646C208.961 264.778 200.947 265.15 193.147 265.85L147.656 269.927L119.308 272.491C114.344 272.938 109.02 273.837 104.063 273.61C100.107 273.429 96.8153 272.213 93.564 269.948C92.9766 269.54 92.411 269.103 91.8674 268.638C91.3237 268.172 90.8047 267.681 90.3103 267.164C89.8158 266.646 89.3485 266.105 88.9083 265.541C88.4681 264.977 88.0572 264.392 87.6757 263.787C87.294 263.182 86.9436 262.559 86.6244 261.919C86.3052 261.278 86.0188 260.624 85.7652 259.955C85.5117 259.286 85.2921 258.605 85.1067 257.914C84.9212 257.224 84.7708 256.525 84.6554 255.819C83.7086 250.042 85.3864 244.202 88.8438 239.538C91.6243 235.787 95.2507 233.468 99.7389 232.243C104.916 230.829 110.582 230.647 115.914 230.176L136.263 228.317L204.179 221.993C216.433 220.862 228.982 220.21 241.146 218.42C243.033 222.704 245.508 226.889 247.681 231.045C253.99 243.106 260.811 255.101 266.591 267.418L314.732 115.697L329.329 69.6346C332.086 60.9228 334.645 52.0711 337.735 43.4736Z" fill="white"/>
<path d="M721.854 421.396C698.372 421.396 677.455 416.674 659.101 407.23C640.748 397.516 626.308 384.16 615.782 367.161C605.525 350.163 600.397 330.87 600.397 309.284C600.397 287.429 605.525 268.137 615.782 251.408C626.308 234.409 640.748 221.188 659.101 211.744C677.455 202.03 698.372 197.173 721.854 197.173C744.796 197.173 764.769 202.03 781.773 211.744C798.777 221.188 811.327 234.814 819.424 252.622L770.437 278.929C764.769 268.676 757.616 261.121 748.979 256.264C740.612 251.408 731.436 248.979 721.449 248.979C710.653 248.979 700.936 251.408 692.299 256.264C683.662 261.121 676.78 268.002 671.652 276.906C666.793 285.81 664.364 296.603 664.364 309.284C664.364 321.966 666.793 332.759 671.652 341.663C676.78 350.567 683.662 357.448 692.299 362.305C700.936 367.161 710.653 369.59 721.449 369.59C731.436 369.59 740.612 367.296 748.979 362.709C757.616 357.852 764.769 350.163 770.437 339.639L819.424 366.352C811.327 383.89 798.777 397.516 781.773 407.23C764.769 416.674 744.796 421.396 721.854 421.396Z" fill="white"/>
<path d="M854.207 418.158V99.1973H917.365V418.158H854.207Z" fill="white"/>
<path d="M975.98 418.158V200.411H1039.14V418.158H975.98ZM1007.56 170.056C995.953 170.056 986.507 166.683 979.219 159.938C971.932 153.192 968.288 144.828 968.288 134.844C968.288 124.861 971.932 116.496 979.219 109.751C986.507 103.005 995.953 99.6326 1007.56 99.6326C1019.16 99.6326 1028.61 102.87 1035.9 109.346C1043.19 115.552 1046.83 123.647 1046.83 133.63C1046.83 144.153 1043.19 152.922 1035.9 159.938C1028.88 166.683 1019.43 170.056 1007.56 170.056Z" fill="white"/>
<path d="M1230.14 197.173C1247.42 197.173 1262.8 200.681 1276.3 207.696C1290.06 214.442 1300.86 224.965 1308.68 239.266C1316.51 253.296 1320.42 271.374 1320.42 293.5V418.158H1257.27V303.213C1257.27 285.675 1253.35 272.724 1245.53 264.359C1237.97 255.995 1227.17 251.812 1213.14 251.812C1203.15 251.812 1194.11 253.971 1186.01 258.288C1178.18 262.335 1171.98 268.676 1167.39 277.311C1163.07 285.945 1160.91 297.008 1160.91 310.499V418.158H1097.75V200.411H1158.08V260.716L1146.74 242.503C1154.57 227.933 1165.77 216.735 1180.34 208.911C1194.92 201.086 1211.52 197.173 1230.14 197.173Z" fill="white"/>
<path d="M1377.67 418.158V200.411H1440.83V418.158H1377.67ZM1409.25 170.056C1397.65 170.056 1388.2 166.683 1380.91 159.938C1373.63 153.192 1369.98 144.828 1369.98 134.844C1369.98 124.861 1373.63 116.496 1380.91 109.751C1388.2 103.005 1397.65 99.6326 1409.25 99.6326C1420.86 99.6326 1430.31 102.87 1437.59 109.346C1444.88 115.552 1448.52 123.647 1448.52 133.63C1448.52 144.153 1444.88 152.922 1437.59 159.938C1430.58 166.683 1421.13 170.056 1409.25 170.056Z" fill="white"/>
<path d="M1603.09 421.396C1579.88 421.396 1559.23 416.539 1541.15 406.825C1523.33 397.112 1509.16 383.89 1498.64 367.161C1488.38 350.163 1483.25 330.87 1483.25 309.284C1483.25 287.429 1488.38 268.137 1498.64 251.408C1509.16 234.409 1523.33 221.188 1541.15 211.744C1559.23 202.03 1579.88 197.173 1603.09 197.173C1626.03 197.173 1646.54 202.03 1664.63 211.744C1682.71 221.188 1696.88 234.274 1707.14 251.003C1717.39 267.732 1722.52 287.159 1722.52 309.284C1722.52 330.87 1717.39 350.163 1707.14 367.161C1696.88 383.89 1682.71 397.112 1664.63 406.825C1646.54 416.539 1626.03 421.396 1603.09 421.396ZM1603.09 369.59C1613.62 369.59 1623.06 367.161 1631.43 362.305C1639.8 357.448 1646.41 350.567 1651.27 341.663C1656.13 332.489 1658.56 321.696 1658.56 309.284C1658.56 296.603 1656.13 285.81 1651.27 276.906C1646.41 268.002 1639.8 261.121 1631.43 256.264C1623.06 251.408 1613.62 248.979 1603.09 248.979C1592.56 248.979 1583.12 251.408 1574.75 256.264C1566.38 261.121 1559.64 268.002 1554.51 276.906C1549.65 285.81 1547.22 296.603 1547.22 309.284C1547.22 321.696 1549.65 332.489 1554.51 341.663C1559.64 350.567 1566.38 357.448 1574.75 362.305C1583.12 367.161 1592.56 369.59 1603.09 369.59Z" fill="white"/>
</svg>
