<svg width="1820" height="546" viewBox="0 0 1820 546" fill="none" xmlns="http://www.w3.org/2000/svg">
<path d="M337.735 43.4736C337.855 43.6126 338.025 43.7207 338.095 43.8906C338.311 44.4159 340.524 58.5573 340.814 60.2199L351.028 118.568L376.595 264.459L384.435 309.192C385.799 316.973 387.77 325.04 388.298 332.903L408.607 273.836C435.715 272.09 462.899 270.914 490.029 269.491L514.397 268.197C519.604 267.935 525.094 267.361 530.278 267.94C534.098 268.368 537.61 270.154 540.503 272.646C545.139 276.645 547.61 281.565 548.023 287.677C548.393 293.157 546.612 298.863 542.933 302.977C540.194 306.04 536.252 308.385 532.259 309.353C525.008 311.113 513.362 310.793 505.619 311.248L439.437 314.807C438.788 317.587 437.658 320.386 436.73 323.095L431.41 338.543L414.945 386.494L388.882 462.42C384.284 475.807 380.061 489.506 374.913 502.686C373.935 495.014 372.391 487.363 371.056 479.744L364.313 441.252L340.929 307.663L325.826 221.646L293.157 324.468L282.115 359.239C280.179 365.333 277.837 371.531 276.391 377.753C274.663 373.939 272.527 370.266 270.572 366.563L260.715 347.779L232.104 293.208C226.954 283.379 221.563 273.615 216.703 263.646C208.961 264.778 200.947 265.15 193.147 265.85L147.656 269.927L119.308 272.491C114.344 272.938 109.02 273.837 104.063 273.61C100.107 273.429 96.8153 272.213 93.564 269.948C92.9766 269.54 92.411 269.103 91.8674 268.638C91.3237 268.172 90.8047 267.681 90.3103 267.164C89.8158 266.646 89.3485 266.105 88.9083 265.541C88.4681 264.977 88.0572 264.392 87.6757 263.787C87.294 263.182 86.9436 262.559 86.6244 261.919C86.3052 261.278 86.0188 260.624 85.7652 259.955C85.5117 259.286 85.2921 258.605 85.1067 257.914C84.9212 257.224 84.7708 256.525 84.6554 255.819C83.7086 250.042 85.3864 244.202 88.8438 239.538C91.6243 235.787 95.2507 233.468 99.7389 232.243C104.916 230.829 110.582 230.647 115.914 230.176L136.263 228.317L204.179 221.993C216.433 220.862 228.982 220.21 241.146 218.42C243.033 222.704 245.508 226.889 247.681 231.045C253.99 243.106 260.811 255.101 266.591 267.418L314.732 115.697L329.329 69.6346C332.086 60.9228 334.645 52.0711 337.735 43.4736Z" fill="white"/>
<path d="M725.457 322.198C701.975 322.198 681.058 317.476 662.704 308.033C644.351 298.319 629.911 284.963 619.385 267.964C609.128 250.965 604 231.673 604 210.087C604 188.232 609.128 168.939 619.385 152.21C629.911 135.212 644.351 121.99 662.704 112.546C681.058 102.833 701.975 97.9761 725.457 97.9761C748.399 97.9761 768.372 102.833 785.376 112.546C802.38 121.99 814.93 135.616 823.027 153.425L774.04 179.732C768.372 169.479 761.219 161.924 752.582 157.067C744.215 152.21 735.039 149.782 725.052 149.782C714.256 149.782 704.539 152.21 695.902 157.067C687.265 161.924 680.383 168.804 675.255 177.709C670.396 186.613 667.967 197.406 667.967 210.087C667.967 222.769 670.396 233.562 675.255 242.466C680.383 251.37 687.265 258.25 695.902 263.107C704.539 267.964 714.256 270.393 725.052 270.393C735.039 270.393 744.215 268.099 752.582 263.512C761.219 258.655 768.372 250.965 774.04 240.442L823.027 267.155C814.93 284.693 802.38 298.319 785.376 308.033C768.372 317.476 748.399 322.198 725.457 322.198Z" fill="white"/>
<path d="M857.81 318.961V0H920.968V318.961H857.81Z" fill="white"/>
<path d="M979.583 318.961V101.214H1042.74V318.961H979.583ZM1011.16 70.8589C999.556 70.8589 990.11 67.4861 982.822 60.7406C975.535 53.995 971.891 45.6305 971.891 35.6471C971.891 25.6637 975.535 17.2992 982.822 10.5536C990.11 3.80808 999.556 0.435296 1011.16 0.435296C1022.77 0.435296 1032.21 3.67317 1039.5 10.1489C1046.79 16.3548 1050.43 24.4495 1050.43 34.4329C1050.43 44.956 1046.79 53.7252 1039.5 60.7406C1032.48 67.4861 1023.04 70.8589 1011.16 70.8589Z" fill="white"/>
<path d="M1233.74 97.9761C1251.02 97.9761 1266.4 101.484 1279.9 108.499C1293.66 115.245 1304.46 125.768 1312.29 140.068C1320.11 154.099 1324.03 172.177 1324.03 194.303V318.961H1260.87V204.016C1260.87 186.478 1256.96 173.526 1249.13 165.162C1241.57 156.797 1230.78 152.615 1216.74 152.615C1206.75 152.615 1197.71 154.774 1189.62 159.091C1181.79 163.138 1175.58 169.479 1170.99 178.113C1166.67 186.748 1164.51 197.81 1164.51 211.301V318.961H1101.36V101.214H1161.68V161.519L1150.34 143.306C1158.17 128.736 1169.37 117.538 1183.95 109.713C1198.52 101.888 1215.12 97.9761 1233.74 97.9761Z" fill="white"/>
<path d="M1381.28 318.961V101.214H1444.43V318.961H1381.28ZM1412.86 70.8589C1401.25 70.8589 1391.8 67.4861 1384.52 60.7406C1377.23 53.995 1373.58 45.6305 1373.58 35.6471C1373.58 25.6637 1377.23 17.2992 1384.52 10.5536C1391.8 3.80808 1401.25 0.435296 1412.86 0.435296C1424.46 0.435296 1433.91 3.67317 1441.2 10.1489C1448.48 16.3548 1452.13 24.4495 1452.13 34.4329C1452.13 44.956 1448.48 53.7252 1441.2 60.7406C1434.18 67.4861 1424.73 70.8589 1412.86 70.8589Z" fill="white"/>
<path d="M1606.69 322.198C1583.48 322.198 1562.83 317.342 1544.75 307.628C1526.94 297.914 1512.77 284.693 1502.24 267.964C1491.98 250.965 1486.86 231.673 1486.86 210.087C1486.86 188.232 1491.98 168.939 1502.24 152.21C1512.77 135.212 1526.94 121.99 1544.75 112.546C1562.83 102.833 1583.48 97.9761 1606.69 97.9761C1629.64 97.9761 1650.15 102.833 1668.23 112.546C1686.31 121.99 1700.48 135.077 1710.74 151.806C1721 168.535 1726.13 187.962 1726.13 210.087C1726.13 231.673 1721 250.965 1710.74 267.964C1700.48 284.693 1686.31 297.914 1668.23 307.628C1650.15 317.342 1629.64 322.198 1606.69 322.198ZM1606.69 270.393C1617.22 270.393 1626.67 267.964 1635.03 263.107C1643.4 258.25 1650.01 251.37 1654.87 242.466C1659.73 233.292 1662.16 222.499 1662.16 210.087C1662.16 197.406 1659.73 186.613 1654.87 177.709C1650.01 168.804 1643.4 161.924 1635.03 157.067C1626.67 152.21 1617.22 149.782 1606.69 149.782C1596.17 149.782 1586.72 152.21 1578.35 157.067C1569.99 161.924 1563.24 168.804 1558.11 177.709C1553.25 186.613 1550.82 197.406 1550.82 210.087C1550.82 222.499 1553.25 233.292 1558.11 242.466C1563.24 251.37 1569.99 258.25 1578.35 263.107C1586.72 267.964 1596.17 270.393 1606.69 270.393Z" fill="white"/>
<path d="M617.049 468V391C617.049 382.507 619.569 375.74 624.609 370.7C629.649 365.567 636.835 363 646.169 363C649.342 363 652.375 363.327 655.269 363.98C658.255 364.633 660.775 365.66 662.829 367.06L657.089 382.88C655.875 382.04 654.522 381.387 653.029 380.92C651.535 380.453 649.949 380.22 648.269 380.22C645.095 380.22 642.622 381.153 640.849 383.02C639.169 384.793 638.329 387.5 638.329 391.14V398.14L638.889 407.52V468H617.049ZM605.429 411.16V394.36H657.649V411.16H605.429ZM703.412 469.12C695.386 469.12 688.246 467.44 681.992 464.08C675.832 460.72 670.932 456.147 667.292 450.36C663.746 444.48 661.972 437.807 661.972 430.34C661.972 422.78 663.746 416.107 667.292 410.32C670.932 404.44 675.832 399.867 681.992 396.6C688.246 393.24 695.386 391.56 703.412 391.56C711.346 391.56 718.439 393.24 724.692 396.6C730.946 399.867 735.846 404.393 739.392 410.18C742.939 415.967 744.712 422.687 744.712 430.34C744.712 437.807 742.939 444.48 739.392 450.36C735.846 456.147 730.946 460.72 724.692 464.08C718.439 467.44 711.346 469.12 703.412 469.12ZM703.412 451.2C707.052 451.2 710.319 450.36 713.212 448.68C716.106 447 718.392 444.62 720.072 441.54C721.752 438.367 722.592 434.633 722.592 430.34C722.592 425.953 721.752 422.22 720.072 419.14C718.392 416.06 716.106 413.68 713.212 412C710.319 410.32 707.052 409.48 703.412 409.48C699.772 409.48 696.506 410.32 693.612 412C690.719 413.68 688.386 416.06 686.612 419.14C684.932 422.22 684.092 425.953 684.092 430.34C684.092 434.633 684.932 438.367 686.612 441.54C688.386 444.62 690.719 447 693.612 448.68C696.506 450.36 699.772 451.2 703.412 451.2ZM759.31 468V392.68H780.17V413.96L777.23 407.8C779.47 402.48 783.064 398.467 788.01 395.76C792.957 392.96 798.977 391.56 806.07 391.56V411.72C805.137 411.627 804.297 411.58 803.55 411.58C802.804 411.487 802.01 411.44 801.17 411.44C795.197 411.44 790.344 413.167 786.61 416.62C782.97 419.98 781.15 425.253 781.15 432.44V468H759.31ZM895.652 469.12C887.532 469.12 880.299 467.487 873.952 464.22C867.605 460.86 862.612 456.24 858.972 450.36C855.425 444.48 853.652 437.807 853.652 430.34C853.652 422.78 855.425 416.107 858.972 410.32C862.612 404.44 867.605 399.867 873.952 396.6C880.299 393.24 887.532 391.56 895.652 391.56C903.585 391.56 910.492 393.24 916.372 396.6C922.252 399.867 926.592 404.58 929.392 410.74L912.452 419.84C910.492 416.293 908.019 413.68 905.032 412C902.139 410.32 898.965 409.48 895.512 409.48C891.779 409.48 888.419 410.32 885.432 412C882.445 413.68 880.065 416.06 878.292 419.14C876.612 422.22 875.772 425.953 875.772 430.34C875.772 434.727 876.612 438.46 878.292 441.54C880.065 444.62 882.445 447 885.432 448.68C888.419 450.36 891.779 451.2 895.512 451.2C898.965 451.2 902.139 450.407 905.032 448.82C908.019 447.14 910.492 444.48 912.452 440.84L929.392 450.08C926.592 456.147 922.252 460.86 916.372 464.22C910.492 467.487 903.585 469.12 895.652 469.12ZM941.557 468V364.12H963.397V468H941.557ZM983.666 468V392.68H1005.51V468H983.666ZM994.586 382.18C990.573 382.18 987.306 381.013 984.786 378.68C982.266 376.347 981.006 373.453 981.006 370C981.006 366.547 982.266 363.653 984.786 361.32C987.306 358.987 990.573 357.82 994.586 357.82C998.599 357.82 1001.87 358.94 1004.39 361.18C1006.91 363.327 1008.17 366.127 1008.17 369.58C1008.17 373.22 1006.91 376.253 1004.39 378.68C1001.96 381.013 998.693 382.18 994.586 382.18ZM1071.56 391.56C1077.53 391.56 1082.85 392.773 1087.52 395.2C1092.28 397.533 1096.01 401.173 1098.72 406.12C1101.42 410.973 1102.78 417.227 1102.78 424.88V468H1080.94V428.24C1080.94 422.173 1079.58 417.693 1076.88 414.8C1074.26 411.907 1070.53 410.46 1065.68 410.46C1062.22 410.46 1059.1 411.207 1056.3 412.7C1053.59 414.1 1051.44 416.293 1049.86 419.28C1048.36 422.267 1047.62 426.093 1047.62 430.76V468H1025.78V392.68H1046.64V413.54L1042.72 407.24C1045.42 402.2 1049.3 398.327 1054.34 395.62C1059.38 392.913 1065.12 391.56 1071.56 391.56ZM1122.57 468V392.68H1144.41V468H1122.57ZM1133.49 382.18C1129.48 382.18 1126.21 381.013 1123.69 378.68C1121.17 376.347 1119.91 373.453 1119.91 370C1119.91 366.547 1121.17 363.653 1123.69 361.32C1126.21 358.987 1129.48 357.82 1133.49 357.82C1137.51 357.82 1140.77 358.94 1143.29 361.18C1145.81 363.327 1147.07 366.127 1147.07 369.58C1147.07 373.22 1145.81 376.253 1143.29 378.68C1140.87 381.013 1137.6 382.18 1133.49 382.18ZM1201.08 469.12C1192.96 469.12 1185.73 467.487 1179.38 464.22C1173.03 460.86 1168.04 456.24 1164.4 450.36C1160.85 444.48 1159.08 437.807 1159.08 430.34C1159.08 422.78 1160.85 416.107 1164.4 410.32C1168.04 404.44 1173.03 399.867 1179.38 396.6C1185.73 393.24 1192.96 391.56 1201.08 391.56C1209.01 391.56 1215.92 393.24 1221.8 396.6C1227.68 399.867 1232.02 404.58 1234.82 410.74L1217.88 419.84C1215.92 416.293 1213.45 413.68 1210.46 412C1207.57 410.32 1204.39 409.48 1200.94 409.48C1197.21 409.48 1193.85 410.32 1190.86 412C1187.87 413.68 1185.49 416.06 1183.72 419.14C1182.04 422.22 1181.2 425.953 1181.2 430.34C1181.2 434.727 1182.04 438.46 1183.72 441.54C1185.49 444.62 1187.87 447 1190.86 448.68C1193.85 450.36 1197.21 451.2 1200.94 451.2C1204.39 451.2 1207.57 450.407 1210.46 448.82C1213.45 447.14 1215.92 444.48 1217.88 440.84L1234.82 450.08C1232.02 456.147 1227.68 460.86 1221.8 464.22C1215.92 467.487 1209.01 469.12 1201.08 469.12ZM1272.74 469.12C1266.3 469.12 1260.09 468.373 1254.12 466.88C1248.24 465.293 1243.57 463.333 1240.12 461L1247.4 445.32C1250.85 447.467 1254.91 449.24 1259.58 450.64C1264.34 451.947 1269 452.6 1273.58 452.6C1278.62 452.6 1282.16 451.993 1284.22 450.78C1286.36 449.567 1287.44 447.887 1287.44 445.74C1287.44 443.967 1286.6 442.66 1284.92 441.82C1283.33 440.887 1281.18 440.187 1278.48 439.72C1275.77 439.253 1272.78 438.787 1269.52 438.32C1266.34 437.853 1263.12 437.247 1259.86 436.5C1256.59 435.66 1253.6 434.447 1250.9 432.86C1248.19 431.273 1246 429.127 1244.32 426.42C1242.73 423.713 1241.94 420.213 1241.94 415.92C1241.94 411.16 1243.29 406.96 1246 403.32C1248.8 399.68 1252.81 396.833 1258.04 394.78C1263.26 392.633 1269.52 391.56 1276.8 391.56C1281.93 391.56 1287.16 392.12 1292.48 393.24C1297.8 394.36 1302.23 395.993 1305.78 398.14L1298.5 413.68C1294.86 411.533 1291.17 410.087 1287.44 409.34C1283.8 408.5 1280.25 408.08 1276.8 408.08C1271.94 408.08 1268.4 408.733 1266.16 410.04C1263.92 411.347 1262.8 413.027 1262.8 415.08C1262.8 416.947 1263.59 418.347 1265.18 419.28C1266.86 420.213 1269.05 420.96 1271.76 421.52C1274.46 422.08 1277.4 422.593 1280.58 423.06C1283.84 423.433 1287.11 424.04 1290.38 424.88C1293.64 425.72 1296.58 426.933 1299.2 428.52C1301.9 430.013 1304.1 432.113 1305.78 434.82C1307.46 437.433 1308.3 440.887 1308.3 445.18C1308.3 449.847 1306.9 454 1304.1 457.64C1301.3 461.187 1297.24 463.987 1291.92 466.04C1286.69 468.093 1280.3 469.12 1272.74 469.12Z" fill="white"/>
</svg>
